<?xml version="1.0" encoding="utf-8"?>
<!-- Generator: Adobe Illustrator 24.1.0, SVG Export Plug-In . SVG Version: 6.00 Build 0)  -->
<svg version="1.1" id="Layer_1" xmlns="http://www.w3.org/2000/svg" xmlns:xlink="http://www.w3.org/1999/xlink" x="0px" y="0px"
	 viewBox="0 0 32 32" style="enable-background:new 0 0 32 32;" xml:space="preserve" width="20px" height="20px">
<style type="text/css">
	.st0{fill:none;stroke:#FFFFFF;stroke-width:2;stroke-linecap:round;stroke-linejoin:round;stroke-miterlimit:10;}
</style>
<g>
	<polyline class="st0" points="649,138 675,138 675,156 661,156 	"/>
	<polyline class="st0" points="653,156 649,156 649,142 	"/>
	<polyline class="st0" points="661,156 653,162 653,156 	"/>
</g>
<g>
	<g>
		<path d="M2.98,17h26.03c0.4,0,0.76-0.24,0.91-0.62c0.15-0.37,0.07-0.8-0.21-1.09l-11.79-12c-0.38-0.39-1-0.39-1.39,0
			s-0.38,1.02,0,1.41L26.65,15H2.98C2.44,15,2,15.45,2,16S2.44,17,2.98,17z"/>
	</g>
	<g>
		<path d="M17.23,29c0.25,0,0.5-0.1,0.69-0.29l7.86-8c0.38-0.39,0.38-1.02,0-1.41s-1-0.39-1.39,0l-7.86,8
			c-0.38,0.39-0.38,1.02,0,1.41C16.73,28.9,16.98,29,17.23,29z"/>
	</g>
</g>
</svg>
