<?xml version="1.0" encoding="utf-8"?>
<!-- Generator: Adobe Illustrator 24.1.0, SVG Export Plug-In . SVG Version: 6.00 Build 0)  -->
<svg version="1.1" id="Layer_1" xmlns="http://www.w3.org/2000/svg" xmlns:xlink="http://www.w3.org/1999/xlink" x="0px" y="0px"
	 viewBox="0 0 233.44 277.02" style="enable-background:new 0 0 233.44 277.02;" xml:space="preserve" width="110px">
<style type="text/css">
	.st0{fill:#F3F3F3;}
</style>
<g>
	<g>
		<g>
			<g>
				<path class="st0" d="M90.43,134.85H35.2c-7.21,0-14.1,6.03-14.1,13.47v56.52c0,7.44,6.89,13.47,14.1,13.47h55.24
					c7.22,0,14.1-6.03,14.1-13.47v-56.52C104.54,140.88,97.65,134.85,90.43,134.85 M90.43,204.83H35.2v-56.52h55.24v56.52H90.43z"/>
			</g>
			<g>
				<path class="st0" d="M185.26,176.18l26.6-41.34h-16.93l-19.75,30.71c-1.42,2.14-3.8,3.54-6.5,3.54h-1.25
					c-2.7,0-5.09-1.4-6.5-3.54l-19.68-30.71h-16.9l26.62,41.52l-28.39,41.93h17.2l21.79-32.2c1.42-2.13,3.8-3.54,6.5-3.54h0.31
					c2.69,0,5.07,1.4,6.5,3.54l21.91,32.2H214L185.26,176.18z"/>
			</g>
			<g>
				<path class="st0" d="M57.07,57.71l-7.94,13.45h41.23v22.27H35.22V36.91h61.32l7.97-13.47h-69.3c-7.21,0-14.1,6.03-14.1,13.47
					v56.52c0,7.44,6.89,13.47,14.1,13.47h55.14c7.21,0,14.11-6.03,14.11-13.47V57.71H57.07z"/>
			</g>
			<g>
				<path class="st0" d="M194.98,23.38h-60.95v83.58h60.95c7.22,0,14.13-6.04,14.13-13.49V77.68c0-7.45-4.47-13.49-11.7-13.49
					c7.23,0,11.7-6.04,11.7-13.48V36.87C209.11,29.42,202.21,23.38,194.98,23.38 M194.98,87.93c0,3.06-2.41,5.54-5.37,5.54h-41.46
					v-22.3h41.46c2.96,0,5.37,2.48,5.37,5.54L194.98,87.93L194.98,87.93z M194.98,52.15c0,3.06-2.41,5.54-5.37,5.54h-41.46V36.87
					h41.46c2.96,0,5.37,2.48,5.37,5.54L194.98,52.15L194.98,52.15z"/>
			</g>
		</g>
	</g>
	<g>
		<g>
			<path class="st0" d="M23.23,259.29c0.74,2.53,2.14,3.63,4.73,3.63c3.08,0,4.7-1.53,4.7-4.5c0-1.37-0.42-2.47-1.23-3.17
				c-0.77-0.63-0.95-0.7-3.86-1.53c-4.27-1.2-6.03-3.1-6.03-6.67c0-4,2.45-6.37,6.59-6.37c3.57,0,5.54,1.47,6.31,4.74l-2.38,0.6
				c-0.7-2.3-1.79-3.17-3.96-3.17c-2.45,0-3.89,1.5-3.89,4.07c0,2.43,1.23,3.67,4.73,4.67c2.87,0.83,3.36,1.03,4.38,1.8
				c1.33,1.03,2,2.67,2,4.9c0,4.4-2.56,6.8-7.32,6.8c-4.17,0-6.31-1.53-7.15-5.17L23.23,259.29z"/>
		</g>
		<g>
			<path class="st0" d="M61.56,243.18h-5.82v-2.2h14.33v2.2h-5.78v21.61h-2.73V243.18z"/>
		</g>
		<g>
			<path class="st0" d="M94.74,240.98v16.18c0,2.07,0.18,3.1,0.74,3.94c0.77,1.27,1.89,1.83,3.64,1.83c2.1,0,3.29-0.6,4.07-2.1
				c0.42-0.8,0.56-1.8,0.56-3.67v-16.18h2.73v16.18c0,2.97-0.28,4.24-1.26,5.5c-1.33,1.7-3.12,2.43-5.99,2.43
				c-3.01,0-4.98-0.87-6.2-2.8c-0.77-1.17-1.02-2.43-1.02-5.14v-16.18h2.73V240.98z"/>
		</g>
		<g>
			<path class="st0" d="M130.09,240.98h6.66c5.26-0.1,7.89,2.6,7.78,7.9v8.01c0.11,5.3-2.52,8-7.78,7.9h-6.66V240.98z M136.5,262.62
				c3.71,0.07,5.29-1.77,5.29-6.1v-7.3c0-4.3-1.58-6.14-5.29-6.07h-3.68v19.48L136.5,262.62L136.5,262.62z"/>
		</g>
		<g>
			<path class="st0" d="M167.68,240.98h2.73v23.81h-2.73V240.98z"/>
		</g>
		<g>
			<path class="st0" d="M193.53,248.88c0-2.9,0.49-4.63,1.68-5.97c1.33-1.53,3.15-2.24,5.78-2.24c2.8,0,4.77,0.83,6.06,2.6
				c0.98,1.3,1.37,2.94,1.37,5.6v8.01c0,2.9-0.49,4.63-1.68,5.97c-1.33,1.53-3.15,2.23-5.75,2.23c-2.84,0-4.8-0.83-6.1-2.6
				c-0.95-1.3-1.37-2.97-1.37-5.6v-8H193.53z M205.69,249.15c0-4.37-1.44-6.3-4.73-6.3c-3.26,0-4.7,1.93-4.7,6.3v7.47
				c0,4.37,1.44,6.3,4.7,6.3c3.29,0,4.73-1.93,4.73-6.3V249.15z"/>
		</g>
	</g>
</g>
</svg>
