<?xml version="1.0" encoding="utf-8"?>
<!-- Generator: Adobe Illustrator 24.1.0, SVG Export Plug-In . SVG Version: 6.00 Build 0)  -->
<svg version="1.1" id="Isolation_Mode" xmlns="http://www.w3.org/2000/svg" xmlns:xlink="http://www.w3.org/1999/xlink" x="0px"
	 y="0px" viewBox="0 0 52 53" style="enable-background:new 0 0 52 53;" xml:space="preserve">
<style type="text/css">
	.st0{fill:#545454;}
</style>
<g>
	<path class="st0" d="M50,0H2C0.9,0,0,0.9,0,2v51c0,1.1,0.9,2,2,2h48c1.1,0,2-0.9,2-2V2C52,0.9,51.1,0,50,0z M48,51H4V4h44V51z"/>
	<g>
		<path class="st0" d="M30.57,46.5c-3.31,0-6-2.69-6-6s2.69-6,6-6s6,2.69,6,6S33.88,46.5,30.57,46.5z M30.57,37.5
			c-1.65,0-3,1.35-3,3s1.35,3,3,3s3-1.35,3-3S32.23,37.5,30.57,37.5z"/>
	</g>
	<polygon class="st0" points="43.14,21.74 41.33,19.93 38.61,22.65 35.89,19.93 34.07,21.74 36.79,24.46 34.07,27.19 35.89,29 
		38.61,26.28 41.33,29 43.14,27.19 40.42,24.46 	"/>
	<polygon class="st0" points="19.07,15.81 17.26,14 14.54,16.72 11.74,13.93 9.93,15.74 12.72,18.54 10,21.26 11.81,23.07 
		14.54,20.35 17.19,23 19,21.19 16.35,18.54 	"/>
	<path class="st0" d="M30.17,20l-8.1,0.95l2.23,2.35C21.26,25.1,13.57,30.86,13.57,43c0,0.83,0.67,1.5,1.5,1.5s1.5-0.67,1.5-1.5
		c0-11.71,8.14-16.57,9.86-17.46l2.38,2.5L30.17,20z"/>
</g>
</svg>
